<svg xmlns="http://www.w3.org/2000/svg" version="1.1" xmlns:xlink="http://www.w3.org/1999/xlink" xmlns:svgjs="http://svgjs.com/svgjs" width="1900" height="1200" preserveAspectRatio="none" viewBox="0 0 1900 1200" style="height:100%">
        <g mask="url(&quot;#SvgjsMask1034&quot;)" fill="none">
            <rect width="1900" height="1200" x="0" y="0" fill="rgba(241, 249, 255, 1)"></rect>
            <path d="M1669 610L1668 -23" stroke-width="6" stroke="url(#SvgjsLinearGradient1035)" stroke-linecap="round" class="Down"></path>
            <path d="M507 1164L506 600" stroke-width="8" stroke="url(#SvgjsLinearGradient1036)" stroke-linecap="round" class="Up"></path>
            <path d="M1005 974L1004 426" stroke-width="10" stroke="url(#SvgjsLinearGradient1035)" stroke-linecap="round" class="Down"></path>
            <path d="M1482 1179L1481 643" stroke-width="8" stroke="url(#SvgjsLinearGradient1035)" stroke-linecap="round" class="Down"></path>
            <path d="M1575 213L1574 845" stroke-width="10" stroke="url(#SvgjsLinearGradient1035)" stroke-linecap="round" class="Down"></path>
            <path d="M1548 417L1547 -468" stroke-width="10" stroke="url(#SvgjsLinearGradient1036)" stroke-linecap="round" class="Up"></path>
            <path d="M727 387L726 -36" stroke-width="8" stroke="url(#SvgjsLinearGradient1036)" stroke-linecap="round" class="Up"></path>
            <path d="M1308 931L1307 271" stroke-width="6" stroke="url(#SvgjsLinearGradient1035)" stroke-linecap="round" class="Down"></path>
            <path d="M777 144L776 711" stroke-width="10" stroke="url(#SvgjsLinearGradient1036)" stroke-linecap="round" class="Up"></path>
            <path d="M180 343L179 960" stroke-width="10" stroke="url(#SvgjsLinearGradient1035)" stroke-linecap="round" class="Down"></path>
            <path d="M1037 422L1036 1299" stroke-width="8" stroke="url(#SvgjsLinearGradient1036)" stroke-linecap="round" class="Up"></path>
            <path d="M1525 1098L1524 1747" stroke-width="8" stroke="url(#SvgjsLinearGradient1036)" stroke-linecap="round" class="Up"></path>
            <path d="M1481 309L1480 647" stroke-width="10" stroke="url(#SvgjsLinearGradient1036)" stroke-linecap="round" class="Up"></path>
            <path d="M1716 236L1715 633" stroke-width="8" stroke="url(#SvgjsLinearGradient1035)" stroke-linecap="round" class="Down"></path>
            <path d="M345 1071L344 340" stroke-width="6" stroke="url(#SvgjsLinearGradient1036)" stroke-linecap="round" class="Up"></path>
            <path d="M1493 954L1492 319" stroke-width="10" stroke="url(#SvgjsLinearGradient1036)" stroke-linecap="round" class="Up"></path>
            <path d="M321 634L320 26" stroke-width="8" stroke="url(#SvgjsLinearGradient1036)" stroke-linecap="round" class="Up"></path>
            <path d="M382 187L381 748" stroke-width="6" stroke="url(#SvgjsLinearGradient1035)" stroke-linecap="round" class="Down"></path>
            <path d="M1426 695L1425 1188" stroke-width="6" stroke="url(#SvgjsLinearGradient1035)" stroke-linecap="round" class="Down"></path>
            <path d="M1100 443L1099 -439" stroke-width="8" stroke="url(#SvgjsLinearGradient1035)" stroke-linecap="round" class="Down"></path>
            <path d="M1221 1065L1220 347" stroke-width="10" stroke="url(#SvgjsLinearGradient1035)" stroke-linecap="round" class="Down"></path>
            <path d="M1446 1158L1445 1716" stroke-width="8" stroke="url(#SvgjsLinearGradient1035)" stroke-linecap="round" class="Down"></path>
            <path d="M683 696L682 1296" stroke-width="8" stroke="url(#SvgjsLinearGradient1036)" stroke-linecap="round" class="Up"></path>
            <path d="M650 604L649 1068" stroke-width="10" stroke="url(#SvgjsLinearGradient1035)" stroke-linecap="round" class="Down"></path>
            <path d="M140 902L139 276" stroke-width="6" stroke="url(#SvgjsLinearGradient1036)" stroke-linecap="round" class="Up"></path>
            <path d="M1865 306L1864 882" stroke-width="10" stroke="url(#SvgjsLinearGradient1035)" stroke-linecap="round" class="Down"></path>
            <path d="M86 603L85 1020" stroke-width="8" stroke="url(#SvgjsLinearGradient1035)" stroke-linecap="round" class="Down"></path>
            <path d="M1794 136L1793 746" stroke-width="6" stroke="url(#SvgjsLinearGradient1036)" stroke-linecap="round" class="Up"></path>
            <path d="M907 142L906 -174" stroke-width="8" stroke="url(#SvgjsLinearGradient1036)" stroke-linecap="round" class="Up"></path>
            <path d="M379 402L378 1180" stroke-width="6" stroke="url(#SvgjsLinearGradient1036)" stroke-linecap="round" class="Up"></path>
            <path d="M530 435L529 -147" stroke-width="10" stroke="url(#SvgjsLinearGradient1035)" stroke-linecap="round" class="Down"></path>
            <path d="M1881 581L1880 -314" stroke-width="8" stroke="url(#SvgjsLinearGradient1035)" stroke-linecap="round" class="Down"></path>
            <path d="M229 744L228 1477" stroke-width="8" stroke="url(#SvgjsLinearGradient1035)" stroke-linecap="round" class="Down"></path>
            <path d="M889 894L888 28" stroke-width="8" stroke="url(#SvgjsLinearGradient1036)" stroke-linecap="round" class="Up"></path>
            <path d="M757 442L756 984" stroke-width="8" stroke="url(#SvgjsLinearGradient1036)" stroke-linecap="round" class="Up"></path>
            <path d="M1096 591L1095 1299" stroke-width="10" stroke="url(#SvgjsLinearGradient1035)" stroke-linecap="round" class="Down"></path>
            <path d="M1017 877L1016 1552" stroke-width="10" stroke="url(#SvgjsLinearGradient1035)" stroke-linecap="round" class="Down"></path>
            <path d="M1234 1147L1233 834" stroke-width="8" stroke="url(#SvgjsLinearGradient1036)" stroke-linecap="round" class="Up"></path>
            <path d="M806 353L805 1131" stroke-width="10" stroke="url(#SvgjsLinearGradient1035)" stroke-linecap="round" class="Down"></path>
            <path d="M25 801L24 427" stroke-width="10" stroke="url(#SvgjsLinearGradient1035)" stroke-linecap="round" class="Down"></path>
            <path d="M1402 1175L1401 655" stroke-width="8" stroke="url(#SvgjsLinearGradient1036)" stroke-linecap="round" class="Up"></path>
            <path d="M915 1074L914 598" stroke-width="8" stroke="url(#SvgjsLinearGradient1035)" stroke-linecap="round" class="Down"></path>
            <path d="M303 939L302 463" stroke-width="6" stroke="url(#SvgjsLinearGradient1035)" stroke-linecap="round" class="Down"></path>
            <path d="M1078 239L1077 966" stroke-width="8" stroke="url(#SvgjsLinearGradient1035)" stroke-linecap="round" class="Down"></path>
            <path d="M1395 668L1394 1327" stroke-width="8" stroke="url(#SvgjsLinearGradient1035)" stroke-linecap="round" class="Down"></path>
            <path d="M784 509L783 -3" stroke-width="6" stroke="url(#SvgjsLinearGradient1035)" stroke-linecap="round" class="Down"></path>
            <path d="M1650 849L1649 79" stroke-width="8" stroke="url(#SvgjsLinearGradient1036)" stroke-linecap="round" class="Up"></path>
            <path d="M1861 789L1860 456" stroke-width="6" stroke="url(#SvgjsLinearGradient1035)" stroke-linecap="round" class="Down"></path>
        </g>
        <defs>
            <mask id="SvgjsMask1034">
                <rect width="1900" height="1200" fill="#ffffff"></rect>
            </mask>
            <linearGradient x1="0%" y1="0%" x2="0%" y2="100%" id="SvgjsLinearGradient1035">
                <stop stop-color="rgba(195, 221, 249, 0)" offset="0"></stop>
                <stop stop-color="rgba(195, 221, 249, 1)" offset="1"></stop>
            </linearGradient>
            <linearGradient x1="0%" y1="100%" x2="0%" y2="0%" id="SvgjsLinearGradient1036">
                <stop stop-color="rgba(195, 221, 249, 0)" offset="0"></stop>
                <stop stop-color="rgba(195, 221, 249, 1)" offset="1"></stop>
            </linearGradient>
        </defs>
      </svg>